<?xml version="1.0" encoding="utf-8"?>
<!-- Generator: Adobe Illustrator 14.0.0, SVG Export Plug-In . SVG Version: 6.00 Build 43363)  -->
<!DOCTYPE svg PUBLIC "-//W3C//DTD SVG 1.1//EN" "http://www.w3.org/Graphics/SVG/1.1/DTD/svg11.dtd">
<svg version="1.1" id="Layer_1" xmlns="http://www.w3.org/2000/svg" xmlns:xlink="http://www.w3.org/1999/xlink" x="0px" y="0px"
	 width="56.908px" height="56.908px" viewBox="0 0 56.908 56.908" enable-background="new 0 0 56.908 56.908" xml:space="preserve">
<g>
	<path fill="#5ACBF5" d="M28.404,0c-4.819,0-9.689,1.242-14.177,3.821c-2.195,1.287-4.156,2.816-5.872,4.534
		C2.958,13.751,0,21.011,0,28.454h5.298c0-6.062,2.388-11.98,6.779-16.374c1.386-1.384,3.007-2.625,4.822-3.675
		c3.628-2.104,7.593-3.104,11.504-3.104h0.05V0H28.404"/>
	<path fill="#ACE5FA" d="M28.454,0v5.303c6.064,0,11.982,2.386,16.375,6.777c1.385,1.387,2.625,3.008,3.677,4.823
		c2.101,3.627,3.103,7.589,3.103,11.506v0.045c0,6.064-2.385,11.986-6.778,16.377c-1.431,1.386-3.009,2.628-4.822,3.677
		c-3.628,2.103-7.59,3.103-11.553,3.103c-6.062,0-11.982-2.385-16.376-6.778c-1.386-1.384-2.626-3.005-3.677-4.819
		C6.3,36.385,5.299,32.418,5.299,28.455H0c0,4.873,1.241,9.739,3.817,14.228c1.29,2.196,2.817,4.155,4.537,5.873
		c5.394,5.396,12.651,8.354,20.099,8.354c4.821,0,9.737-1.239,14.228-3.818c2.196-1.289,4.153-2.815,5.875-4.534
		c5.393-5.396,8.353-12.652,8.353-20.102v-0.045c0-4.824-1.24-9.695-3.82-14.183c-1.288-2.195-2.817-4.151-4.532-5.872
		C43.157,2.963,35.901,0,28.454,0"/>
</g>
</svg>
