<?xml version="1.0" encoding="iso-8859-1"?>
<!-- Generator: Adobe Illustrator 18.0.0, SVG Export Plug-In . SVG Version: 6.00 Build 0)  -->
<!DOCTYPE svg PUBLIC "-//W3C//DTD SVG 1.1//EN" "http://www.w3.org/Graphics/SVG/1.1/DTD/svg11.dtd">
<svg version="1.1" xmlns="http://www.w3.org/2000/svg" xmlns:xlink="http://www.w3.org/1999/xlink" x="0px" y="0px"
	 viewBox="0 0 24.348 40.885" style="enable-background:new 0 0 24.348 40.885;" xml:space="preserve">
<g id="Layer_2">
	<path style="fill-rule:evenodd;clip-rule:evenodd;fill:#80C342;" d="M22.645,29.713c1.385-0.524,0.732,2.236-0.437,2.23
		C22.102,31.943,22.325,29.818,22.645,29.713L22.645,29.713z M21.038,32.15c0.531,0.003,1.393-2.332,0.01-1.914
		C20.726,30.766,21.04,31.831,21.038,32.15L21.038,32.15z M19.547,32.567c-0.527-0.959-1.267-1.92,0.755-2.229
		C20.297,31.295,20.718,32.254,19.547,32.567L19.547,32.567z M20.784,40.122c-0.849-0.323-1.378-0.751-1.801-1.072
		c0-0.106,0.536-0.954,0.536-0.954c0.53,0.215,1.06,0.643,1.59,0.858C21.639,39.276,20.997,40.123,20.784,40.122L20.784,40.122z
		 M17.711,38.086c0.106,0.107,0.635,0.535,0.848,0.536c0.963-1.165,0.113-1.275-0.205-1.489
		C18.248,37.239,17.712,37.874,17.711,38.086L17.711,38.086z M17.826,36.599c0.105,0.213-0.537,1.061-0.538,1.167
		c-0.318-0.002-0.848-0.43-0.847-0.642c0.001-0.213,0.323-0.956,0.537-1.167C17.191,35.958,17.614,36.385,17.826,36.599
		L17.826,36.599z M14.534,35.944c0.104,0.213,0.847,0.748,1.377,0.857c0.32-0.211,0.858-1.59-0.309-2.022
		C15.177,34.778,14.748,35.626,14.534,35.944L14.534,35.944z M13.791,35.621c-0.636-0.428,0.112-1.275,0.435-1.805
		c0.107-0.212,0.742,0.43,0.741,0.536C14.539,34.881,14.112,35.198,13.791,35.621L13.791,35.621z M13.167,32.854
		c-0.32,0.317-0.961,0.952-1.07,1.483l0.53,0.322c0.425,0.002,0.961-0.952,1.176-1.27C13.909,33.283,13.487,32.643,13.167,32.854
		L13.167,32.854z M11.683,31.996c0.213-0.106,0.637,0.109,0.849,0.323c-0.003,0.638-0.858,1.484-1.072,1.695
		c-0.426,0.105-1.063-0.112-0.955-0.217C10.719,33.373,11.362,32.419,11.683,31.996L11.683,31.996z M10.727,31.778
		c-0.425-0.108-1.818,2.224-1.287,2.226C9.972,34.007,11.258,31.887,10.727,31.778L10.727,31.778z M13.701,32.325
		c1.692,1.709,5.397,4.918,6.882,5.669c0.53,0.215,0.852-0.208,0.641-0.528c-0.948-1.6-1.791-3.305-2.633-5.01
		c-0.841-1.918-0.414-2.128,0.013-2.339c0.745-0.209,1.703-0.416,2.873-0.623c1.384-0.206,1.92-1.16,1.924-2.01
		c0.004-0.744,0.006-1.063,0.01-1.807c0.013-2.552-0.781-13.612-0.747-20.203c-0.088-3.722-1.997-4.688-3.273-4.694
		c-3.614-0.019-6.273,0.074-10.102,0.479c-3.404,0.302-6.491,1.243-6.189,4.54c0.283,7.018,0.883,14.463,1.379,21.482
		c-0.011,2.126,1.362,3.834,4.34,3.744C11.901,30.934,12.219,31.042,13.701,32.325L13.701,32.325z M7.314,33.994
		c0.004-0.851,0.435-1.912,0.861-2.228c0.319-0.105,0.852-0.102,1.276,0.007c-0.43,0.742-0.54,1.698-1.075,2.227
		C8.164,34.104,7.526,34.101,7.314,33.994L7.314,33.994z M6.264,31.331c0.318,0.108,0.743,0.216,1.062,0.324
		c0.106,0.001-0.756,2.229-0.968,2.228c-0.426-0.002-0.956-0.111-1.063-0.218C5.512,32.921,5.941,32.179,6.264,31.331L6.264,31.331z
		 M5.628,31.008c-0.108,0.425-0.969,2.227-1.5,2.225c-0.319-0.001-0.53-0.322-0.528-0.747c0.004-0.638,0.647-1.698,0.969-2.227
		C4.886,30.473,5.204,30.793,5.628,31.008L5.628,31.008z M1.732,23.653c0.108-0.318,1.603-1.586,1.815-1.479
		c-0.003,0.425,0.096,1.914,0.097,1.808c-0.005,0.957-1.498,1.8-1.71,1.692C1.831,25.248,1.728,24.397,1.732,23.653L1.732,23.653z
		 M3.301,28.657c0.213-0.105,0.535-0.741,0.64-0.421c-0.001,0.212-0.003,0.531-0.003,0.638c-0.002,0.319,0.103,0.638,0.208,0.852
		c0.212,0.107-0.857,1.377-1.286,2.013c-0.527-0.641-0.835-2.981-0.827-4.469c0.002-0.425,1.283-1.588,1.71-1.905
		c0.414,2.341-1.075,2.546-1.188,3.608C2.661,29.186,2.981,28.975,3.301,28.657L3.301,28.657z M2.468,4.308
		c-0.107,0.318-0.11,0.85-0.111,1.063c-0.319,0.105-1.39,1.375-1.389,1.269C1.078,6.001,2.471,3.776,2.468,4.308L2.468,4.308z
		 M1.534,20.781c0.428-0.423,1.281-0.95,1.709-1.479c-0.003,0.531,0.1,1.276,0.204,1.702c-0.001,0.107-1.495,1.268-1.71,1.692
		C1.527,22.27,1.425,21.206,1.534,20.781L1.534,20.781z M2.946,15.048c-0.003,0.531-1.393,1.906-1.713,2.224
		c-0.213-0.001-0.414-2.128-0.201-2.234c0.32-0.317,1.713-2.224,1.817-1.904C2.846,13.771,2.948,14.516,2.946,15.048L2.946,15.048z
		 M1.334,18.229c0.322-0.636,1.605-2.012,1.71-1.799c-0.002,0.425,0.206,1.277,0.098,1.702c-0.322,0.636-1.498,1.906-1.711,1.905
		C1.326,19.93,1.225,18.76,1.334,18.229L1.334,18.229z M2.353,6.114c-0.64,0.316-1.39,1.481-1.712,2.118
		c-0.215,0.53-0.115,1.807,0.098,1.808c0.322-0.636,1.177-1.482,1.605-2.224C2.452,7.604,2.566,6.115,2.353,6.114L2.353,6.114z
		 M0.826,13.761c0.104,0.638,0.317,0.214,0.639-0.21c0.858-1.484,1.282-1.163,1.19-3.821c0.003-0.532,0.005-1.063-0.529-0.534
		c-0.429,0.636-1.389,1.375-1.394,2.226C0.728,12.06,0.723,13.017,0.826,13.761L0.826,13.761z M24.348,29.296
		c-0.072-6.698-0.976-17.121-0.942-23.819c0.02-3.721-1.671-5.749-5.181-5.448C17.268,0.024,7.804,0.295,5.568,1.134
		C3.651,1.869,2.477,2.607,1.511,4.409C0.76,5.787,0.006,7.591,0.001,8.76c-0.024,4.784,0.795,10.954,1.195,15.74
		c0.402,4.574-0.264,10.098,6.009,10.13c1.488,0.008,3.828-0.299,4.782,0.343c2.86,1.928,5.402,3.748,8.476,5.678
		c1.378,0.857,2.981-0.835,2.243-2.115c-0.524-1.278-1.688-2.454-2.948-5.437c1.17-0.207,1.809-0.31,2.98-0.516
		C24.014,32.165,24.338,31.21,24.348,29.296z"/>
</g>
<g id="Layer_1">
</g>
</svg>
