<?xml version="1.0" encoding="utf-8"?>
<!-- Generator: Adobe Illustrator 14.0.0, SVG Export Plug-In . SVG Version: 6.00 Build 43363)  -->
<!DOCTYPE svg PUBLIC "-//W3C//DTD SVG 1.1//EN" "http://www.w3.org/Graphics/SVG/1.1/DTD/svg11.dtd">
<svg version="1.1" id="Layer_1" xmlns="http://www.w3.org/2000/svg" xmlns:xlink="http://www.w3.org/1999/xlink" x="0px" y="0px"
	 width="56.91px" height="56.91px" viewBox="0 0 56.91 56.91" enable-background="new 0 0 56.91 56.91" xml:space="preserve">
<g>
	<path fill="#CBCCCE" d="M28.454,0v5.303c6.396,0,12.174,2.626,16.374,6.778c4.155,4.203,6.731,9.978,6.781,16.373h5.301
		c0-7.874-3.201-14.987-8.356-20.099C43.397,3.201,36.285,0,28.454,0"/>
	<path fill="#98999E" d="M51.609,28.454L51.609,28.454c-0.05,6.399-2.626,12.176-6.781,16.377
		c-4.199,4.152-9.978,6.779-16.374,6.779s-12.174-2.627-16.377-6.779C7.925,40.63,5.3,34.854,5.3,28.454
		c0-6.396,2.625-12.17,6.777-16.373c4.203-4.152,9.98-6.778,16.377-6.778V0c-7.878,0-14.991,3.201-20.1,8.355
		C3.198,13.467,0,20.58,0,28.454c0,7.831,3.198,14.944,8.354,20.1c5.108,5.158,12.222,8.355,20.1,8.355
		c7.831,0,14.943-3.197,20.099-8.355c5.155-5.155,8.356-12.27,8.356-20.1H51.609z"/>
</g>
</svg>
