<?xml version="1.0" encoding="utf-8"?>
<!-- Generator: Adobe Illustrator 14.0.0, SVG Export Plug-In . SVG Version: 6.00 Build 43363)  -->
<!DOCTYPE svg PUBLIC "-//W3C//DTD SVG 1.1//EN" "http://www.w3.org/Graphics/SVG/1.1/DTD/svg11.dtd">
<svg version="1.1" id="Layer_1" xmlns="http://www.w3.org/2000/svg" xmlns:xlink="http://www.w3.org/1999/xlink" x="0px" y="0px"
	 width="40px" height="40px" viewBox="0 0 40 40" enable-background="new 0 0 40 40" xml:space="preserve">
<g>
	<path d="M1.758,2.855h2.094h5.876h0.636l0.359,0.478l12.102,16.046L23.295,20l-0.469,0.622L10.724,36.668l-0.359,0.477H9.729H3.852
		H1.758l1.048-1.648L12.665,20L2.806,4.504L1.758,2.855L1.758,2.855z M16.935,2.855h2.074h5.645h0.629l0.361,0.469l12.335,16.047
		L38.462,20l-0.483,0.631L25.644,36.676l-0.361,0.469h-0.629h-5.723h-2.082l1.034-1.645l9.751-15.502L17.959,4.496L16.935,2.855
		L16.935,2.855z"/>
</g>
</svg>
