<?xml version="1.0" encoding="iso-8859-1"?>
<!-- Generator: Adobe Illustrator 18.0.0, SVG Export Plug-In . SVG Version: 6.00 Build 0)  -->
<!DOCTYPE svg PUBLIC "-//W3C//DTD SVG 1.1//EN" "http://www.w3.org/Graphics/SVG/1.1/DTD/svg11.dtd">
<svg version="1.1" xmlns="http://www.w3.org/2000/svg" xmlns:xlink="http://www.w3.org/1999/xlink" x="0px" y="0px"
	 viewBox="0 0 40.981 20.242" style="enable-background:new 0 0 40.981 20.242;" xml:space="preserve">
<g id="Layer_14">
	<path style="fill-rule:evenodd;clip-rule:evenodd;fill:#CA6C38;" d="M35.34,7.936c1.302,5.637,3.149,4.725,4.77,8.112
		c0.304,0.718,0.399,2.049,0.194,2.048c-0.098-0.922-0.911-1.848-1.319-2.157c-1.733-1.442-3.271-0.938-6.553,0.171
		c-2.153,0.808-4.615,1.717-7.484,2.316c-4.918,0.794-10.037,1.075-15.872,1.045c-4.402-0.022-8.374-4.035-8.354-7.823
		c0.027-5.323,3.931-8.067,8.853-9.578c3.69-1.107,10.347-1.482,15.158-1.458c1.126,0.006,2.252,0.012,3.479,0.223
		C31.997,1.06,34.542,3.837,35.34,7.936L35.34,7.936z M14.19,20.214c3.174,0.016,8.909-0.671,12.086-1.372
		c3.997-0.799,8.41-3.13,10.356-3.223c0.921,0.004,2.964,0.834,3.159,2.677c-0.004,0.717-0.11,1.535,0.094,1.741
		c0.204,0.103,0.82-0.303,1.031-1.53c0.317-1.943-0.595-3.791-1.409-4.614c-3.056-3.087-3.05-4.213-3.45-6.058
		c-1.508-5.433-3.44-7.797-11.016-7.836c-3.89-0.02-12.593,0.243-15.978,1.556C5.168,2.766-0.17,5.605,0.004,11.748
		c0.079,4.504,4.358,8.416,8.862,8.439C10.607,20.298,12.347,20.205,14.19,20.214z"/>
</g>
<g id="Layer_1">
</g>
</svg>
