<svg version="1.1" xmlns="http://www.w3.org/2000/svg" xmlns:xlink="http://www.w3.org/1999/xlink" x="0px" y="0px" viewBox="0 0 75 132.1" enable-background="new 0 0 75 132.1" xml:space="preserve" style="position: absolute;">
<g><path fill="#adc660" d="M39.1,132.1c-0.5-0.9-4.2-18.8-3.7-40.7c0.4-20.6,4.7-49.8,22.6-71.6c0.7-0.9,2-1,2.8-0.3
	c0.9,0.7,1,2,0.3,2.8c-33,40.1-18.5,107.5-18.3,108.2l-1.9,0.5l0,0.1L39.1,132.1z" class="color color-1" data-color="#ADC660"></path></g>
<g><path fill="#adc660" d="M36.9,118.8c0,0,19.7-41,31.7-29C82.8,104.1,36.9,118.8,36.9,118.8z" class="color color-1" data-color="#ADC660"></path></g>
<g><path fill="#adc660" d="M40.3,119.8c0,0-23-48-37.1-34C-13.5,102.5,40.3,119.8,40.3,119.8z" class="color color-1" data-color="#ADC660"></path></g>
<g><path fill="#adc660" d="M39.4,89.2c0.7-15.3,17.3-20.9,28.9-26.7c1.7-0.9,0.2-3.5-1.5-2.6C54,66.3,37.3,72.4,36.4,89.2
	C36.4,91.1,39.4,91.1,39.4,89.2L39.4,89.2z" class="color color-1" data-color="#ADC660"></path></g>
<g><path fill="#adc660" d="M51.2,70.9c1.2-5.6,3.3-10.8,6.3-15.7c1-1.6-1.6-3.2-2.6-1.5c-3.2,5.1-5.4,10.5-6.6,16.4
	C47.9,72,50.8,72.8,51.2,70.9L51.2,70.9z" class="color color-1" data-color="#ADC660"></path></g>
<g><path fill="#adc660" d="M49.7,70.8c5.7,3.8,12.5,4.8,19.1,2.8c1.8-0.6,1.1-3.5-0.8-2.9c-5.8,1.8-11.7,0.9-16.8-2.5
	C49.6,67.2,48.1,69.8,49.7,70.8L49.7,70.8z" class="color color-1" data-color="#ADC660"></path></g>
<g><path fill="#adc660" d="M40,65.1c-4-9.4-12.4-15.9-20.1-22.4c-1.5-1.2-3.6,0.9-2.1,2.1c7.4,6.3,15.7,12.5,19.6,21.8
	C38.2,68.4,40.8,66.9,40,65.1L40,65.1z" class="color color-1" data-color="#ADC660"></path></g>
<g><path fill="#adc660" d="M32,53.5c-0.3-6,0-12-0.3-18c-0.1-1.9-3.1-1.9-3,0c0.3,6,0,12,0.3,18C29.1,55.4,32.1,55.4,32,53.5L32,53.5z" class="color color-1" data-color="#ADC660"></path></g>
<g><path fill="#adc660" d="M29.8,52.2c-6.1,0.4-12.7,0.7-17.3,5.2c-1.4,1.4,0.7,3.5,2.1,2.1c4-3.9,9.9-3.9,15.2-4.3
	C31.7,55.1,31.7,52.1,29.8,52.2L29.8,52.2z" class="color color-1" data-color="#ADC660"></path></g>
<g><path fill="#adc660" d="M47,43.1c-2.6-6.9-5.2-13.9-7-21.1c-0.5-1.9-3.4-1.1-2.9,0.8c1.8,7.2,4.4,14.2,7,21.1
	C44.8,45.7,47.7,44.9,47,43.1L47,43.1z" class="color color-1" data-color="#ADC660"></path></g>
<g><path fill="#adc660" d="M47.3,43.5c6-2.7,12.2-4.7,18.7-6.2c1.9-0.4,1.1-3.3-0.8-2.9c-6.7,1.5-13.1,3.6-19.4,6.5
	C44,41.7,45.6,44.3,47.3,43.5L47.3,43.5z" class="color color-1" data-color="#ADC660"></path></g>
<g><path fill="#adc660" d="M55.7,28.3c-2.8-6.7-4.8-13.9-5.5-21.2c-0.2-1.9-3.2-1.9-3,0c0.7,7.6,2.7,15,5.6,22
	C53.6,30.9,56.5,30.1,55.7,28.3L55.7,28.3z" class="color color-1" data-color="#ADC660"></path></g>
<g><path fill="#adc660" d="M38.9,95c-4.3-8.8-10.1-16.6-17.3-23.2c-1.4-1.3-3.5,0.8-2.1,2.1c7,6.5,12.7,14,16.9,22.6
	C37.2,98.3,39.8,96.7,38.9,95L38.9,95z" class="color color-1" data-color="#ADC660"></path></g>
<g><circle fill="#ffffff" cx="36.4" cy="20.6" r="5.6" class="color color-2" data-color="#F28D33"></circle></g>
<g><circle fill="#ffffff" cx="30.4" cy="35.6" r="5.6" class="color color-2" data-color="#F28D33"></circle></g>
<g><circle fill="#ffffff" cx="18.4" cy="42.6" r="5.6" class="color color-2" data-color="#F28D33"></circle></g>
<g><circle fill="#ffffff" cx="13.4" cy="57.6" r="5.6" class="color color-2" data-color="#F28D33"></circle></g>
<g><circle fill="#ffffff" cx="21.4" cy="72.6" r="5.6" class="color color-2" data-color="#F28D33"></circle></g>
<g><circle fill="#ffffff" cx="48.4" cy="5.6" r="5.6" class="color color-2" data-color="#F28D33"></circle></g>
<g><circle fill="#ffffff" cx="61.4" cy="18.6" r="5.6" class="color color-2" data-color="#F28D33"></circle></g>
<g><circle fill="#ffffff" cx="66.4" cy="35.6" r="5.6" class="color color-2" data-color="#F28D33"></circle></g>
<g><circle fill="#ffffff" cx="57.4" cy="52.6" r="5.6" class="color color-2" data-color="#F28D33"></circle></g>
<g><circle fill="#ffffff" cx="69.4" cy="60.6" r="5.6" class="color color-2" data-color="#F28D33"></circle></g>
<g><circle fill="#ffffff" cx="69.4" cy="73.6" r="5.6" class="color color-2" data-color="#F28D33"></circle></g>
</svg>