<svg version="1.1" xmlns="http://www.w3.org/2000/svg" xmlns:xlink="http://www.w3.org/1999/xlink" x="0px" y="0px" viewBox="0 0 116.1 178.1" enable-background="new 0 0 116.1 178.1" xml:space="preserve" style="position: absolute;">
<g id="">
	<g><circle fill="#ffffff" cx="58.3" cy="40" r="2.1" class="color color-1" data-color="#8FCCB8"></circle></g>
	<g><path fill="#ffffff" d="M58.3,42.5L58.3,42.5c-0.3,0-0.5,0-0.8-0.1c-0.6-0.2-1.1-0.6-1.4-1.2s-0.3-1.3-0.1-1.9
		c0.4-1.3,1.8-2,3.1-1.5c1.3,0.4,2,1.8,1.5,3.1C60.2,41.8,59.3,42.5,58.3,42.5z M58.3,38.3c-0.7,0-1.4,0.5-1.6,1.2
		c-0.1,0.4-0.1,0.9,0.1,1.3s0.6,0.7,1,0.9c0.9,0.3,1.9-0.2,2.1-1.1c0.3-0.9-0.2-1.9-1.1-2.1C58.6,38.4,58.4,38.3,58.3,38.3z" class="color color-1" data-color="#8FCCB8"></path></g>
</g>
<g id="">
	<g><circle fill="#ffffff" cx="60.7" cy="116.3" r="2.7" class="color color-1" data-color="#8FCCB8"></circle></g>
	<g><path fill="#ffffff" d="M60.7,119.4L60.7,119.4c-0.2,0-0.4,0-0.6-0.1c-0.8-0.2-1.5-0.6-2-1.3c-0.5-0.7-0.7-1.5-0.5-2.4
		c0.3-1.7,1.9-2.9,3.7-2.5c0.8,0.2,1.5,0.6,2,1.3c0.5,0.7,0.7,1.5,0.5,2.4C63.6,118.3,62.2,119.4,60.7,119.4z M60.7,114.1
		c-1.1,0-2,0.8-2.1,1.8c-0.1,0.6,0,1.2,0.3,1.6c0.3,0.5,0.8,0.8,1.4,0.9c1.2,0.2,2.3-0.6,2.5-1.8c0.1-0.6,0-1.2-0.3-1.6
		s-0.8-0.8-1.4-0.9C61,114.1,60.9,114.1,60.7,114.1z" class="color color-1" data-color="#8FCCB8"></path></g>
</g>
<g id="">
	<g><circle fill="#ffffff" cx="67.3" cy="106" r="2.7" class="color color-1" data-color="#8FCCB8"></circle></g>
	<g><path fill="#ffffff" d="M67.3,109.2L67.3,109.2c-0.2,0-0.4,0-0.6-0.1c-0.8-0.2-1.5-0.6-2-1.3c-0.5-0.7-0.7-1.5-0.5-2.4
		c0.3-1.7,1.9-2.9,3.7-2.5c0.8,0.2,1.5,0.6,2,1.3c0.5,0.7,0.7,1.5,0.5,2.4C70.2,108.1,68.8,109.2,67.3,109.2z M67.3,103.8
		c-1.1,0-2,0.8-2.1,1.8c-0.1,0.6,0,1.2,0.3,1.6c0.3,0.5,0.8,0.8,1.4,0.9c1.2,0.2,2.3-0.6,2.5-1.8c0.1-0.6,0-1.2-0.3-1.6
		s-0.8-0.8-1.4-0.9C67.6,103.8,67.5,103.8,67.3,103.8z" class="color color-1" data-color="#8FCCB8"></path></g>
</g>
<g><path fill="#adc660" d="M52.3,178.1c-1.1,0-2-0.9-2-2c0-12.3-0.5-23.8-0.9-34.9c-1.7-41.3-3-73.8,23.5-100.3c0.8-0.8,2-0.8,2.8,0
	c0.8,0.8,0.8,2,0,2.8c-25.2,25.2-24,55.4-22.3,97.3c0.5,11.1,0.9,22.6,0.9,35.1C54.3,177.2,53.4,178.1,52.3,178.1z" class="color color-2" data-color="#54775E"></path></g>
<g id="">
	<g><path fill="#adc660" d="M103.5,79.6c-2.2-1.4-31.3-19.3-51.2,8.2l0.2,0l-0.1,0C79.9,107.6,101.9,81.8,103.5,79.6l0.1,0
		C103.6,79.5,103.6,79.6,103.5,79.6c0.1,0,0.1,0,0.1,0L103.5,79.6z" class="color color-2" data-color="#54775E"></path></g>
	<g><path fill="#adc660" d="M73.5,96.2c-7.3,0-14.6-2.6-21.6-7.6c-0.2-0.1-0.3-0.2-0.4-0.4c-0.2-0.3-0.2-0.8,0-1.1
		C59,76.8,68.6,71.5,80,71.5c11.6,0,21.3,5.5,23.7,7c0,0,0,0,0.1,0c0.5,0.1,0.8,0.5,0.8,1c0,0.4-0.2,0.7-0.6,0.9
		C102.2,82.7,90.5,96.2,73.5,96.2z M53.7,87.5c6.5,4.5,13.1,6.8,19.8,6.8c15,0,25.8-11.2,28.5-14.4c-3.1-1.8-11.8-6.3-22-6.3
		C69.6,73.5,60.7,78.2,53.7,87.5z" class="color color-2" data-color="#54775E"></path></g>
</g>
<g id="">
	<g><path fill="#adc660" d="M115.1,43.5c-1.5-1.4-21.7-19.8-41.5-1.2l0.2,0l-0.1,0C92.4,62.1,113.6,45.1,115.1,43.5L115.1,43.5
		C115.2,43.5,115.2,43.6,115.1,43.5C115.2,43.5,115.2,43.5,115.1,43.5L115.1,43.5z" class="color color-2" data-color="#54775E"></path></g>
	<g><path fill="#adc660" d="M93.9,52.6c-7.6,0-14.6-3.2-20.6-9.6c-0.2-0.1-0.3-0.2-0.4-0.4c-0.1-0.3,0-0.6,0.2-0.9
		c6-5.7,12.6-8.5,19.7-8.5c11.7,0,21,7.9,22.7,9.5c0.3,0.1,0.6,0.4,0.6,0.8c0,0.4-0.2,0.7-0.6,0.8C114,45.6,105.2,52.6,93.9,52.6z
		 M74.8,42.4c5.7,5.8,12.1,8.7,19.1,8.7c9.9,0,17.8-5.7,20-7.5c-2.5-2.2-10.9-8.7-21.1-8.7C86.4,34.9,80.3,37.4,74.8,42.4z" class="color color-2" data-color="#54775E"></path></g>
</g>
<g id="">
	<g><path fill="#adc660" d="M83.7,1.1C82,2.3,59.9,18.3,74.1,41.5l0-0.1l0,0.1C97.3,27.1,84.9,3,83.7,1.1L83.7,1.1
		C83.8,1,83.8,1,83.7,1.1C83.7,1,83.8,1,83.7,1.1L83.7,1.1z" class="color color-2" data-color="#54775E"></path></g>
	<g><path fill="#adc660" d="M74.1,42.3c-0.3,0-0.5-0.1-0.7-0.4c-6-9.8-6.4-19.9-1.2-29.3c3.8-6.7,9.3-11,10.8-12.1
		c0-0.1,0.1-0.1,0.1-0.1c0.1-0.1,0.2-0.2,0.3-0.2c0,0,0-0.1,0-0.1c0.1,0,0.1-0.1,0.2-0.1c0,0,0,0,0,0c0.1,0,0.2,0.1,0.2,0.1l0-0.1
		c0,0,0-0.1,0-0.1c0,0,0,0,0,0c0,0,0,0.1,0,0.1c0.1,0,0.2,0.1,0.3,0.2c0,0,0,0,0,0l0,0c0,0,0.1,0.1,0.1,0.1c0,0,0,0,0,0c0,0,0,0,0,0
		c0.1,0.1,0.2,0.2,0.2,0.3c0,0.1,0,0.1,0,0.2c1,1.8,6.2,12.1,3.6,23.3C86.5,31.5,82,37.4,74.7,42c-0.1,0.2-0.3,0.3-0.5,0.3
		C74.2,42.3,74.2,42.3,74.1,42.3z M83.5,2.3c-4.3,3.2-21,17.7-9.1,38.1c6.6-4.3,10.8-9.8,12.3-16.5C88.9,14,84.8,4.9,83.5,2.3z" class="color color-2" data-color="#54775E"></path></g>
</g>
<g id="">
	<g><path fill="#adc660" d="M13.8,38.8c0.6,2.5,8.9,35.6,42.4,29.9L56,68.6l0.1,0.1C50.3,35.1,16.5,38.3,13.8,38.8L13.8,38.8
		C13.7,38.7,13.7,38.7,13.8,38.8C13.7,38.8,13.7,38.7,13.8,38.8L13.8,38.8z" class="color color-2" data-color="#54775E"></path></g>
	<g><path fill="#adc660" d="M48.6,70C48.6,70,48.6,70,48.6,70c-26.9,0-34.7-26.5-35.8-30.8c-0.1-0.2-0.2-0.3-0.2-0.6c0-0.1,0-0.1,0-0.2
		c0-0.1,0.1-0.2,0.1-0.3v0c0,0,0,0,0,0c0,0,0,0,0,0l0,0c0.1-0.1,0.1-0.1,0.2-0.2l0,0c0,0,0,0,0,0c0,0,0,0,0,0c0.1,0,0.1-0.1,0.2-0.1
		c0.1,0,0.2-0.1,0.3-0.1c0.1,0,0.3,0,0.4,0c0.8-0.1,2.5-0.3,4.7-0.3c9.9,0,33.5,3,38.4,30.8c0.1,0.2,0.1,0.4,0.1,0.6
		c-0.1,0.4-0.4,0.6-0.8,0.6C53.7,69.9,51.1,70,48.6,70z M15,39.5C16.6,45.3,24.5,68,48.6,68c0,0,0,0,0,0c2,0,4.2,0,6.3-0.3
		c-5-25.6-27-28.4-36.3-28.4C17.1,39.3,15.8,39.4,15,39.5z" class="color color-2" data-color="#54775E"></path></g>
</g>
<g id="">
	<g><path fill="#adc660" d="M1.3,103.4c0.7,2.9,10.4,41.5,49.4,34.8l-0.2-0.1l0.1,0.1C43.8,99.1,4.5,102.7,1.3,103.4l-0.1-0.1
		C1.2,103.3,1.2,103.3,1.3,103.4c-0.1,0-0.1-0.1-0.1-0.1L1.3,103.4z" class="color color-2" data-color="#54775E"></path></g>
	<g><path fill="#adc660" d="M41.9,140C41.9,140,41.9,140,41.9,140c-31.3,0-40.3-30.9-41.6-36c-0.1-0.1-0.1-0.2-0.1-0.3
		C0,103.5,0,103.4,0,103.2c0-0.1,0-0.2,0.1-0.3v0c0,0,0,0,0,0c0,0,0,0,0,0c0,0,0,0,0,0c0-0.1,0.1-0.2,0.2-0.3
		c0.1-0.1,0.1-0.3,0.2-0.4c0.1-0.1,0.2-0.2,0.2-0.2c0,0,0,0,0,0l0,0c0.1,0,0.2,0,0.3,0c0.2,0,0.3,0,0.5,0.1c0.9-0.1,2.9-0.3,5.5-0.3
		c11.5,0,38.9,3.5,44.7,35.7c0.1,0.2,0.2,0.6,0.1,0.8c-0.1,0.5-0.5,0.8-0.9,0.9C47.8,139.8,44.7,140,41.9,140z M2.7,104.5
		c1.9,6.8,11,33.5,39.1,33.5c0,0,0,0,0,0c2.4,0,4.8-0.3,7.4-0.7c-5.8-29.8-31.4-33-42.3-33C5.1,104.3,3.7,104.4,2.7,104.5z" class="color color-2" data-color="#54775E"></path></g>
</g>
<g id="">
	<g><path fill="#adc660" d="M101.5,120.4c-0.7,2.9-10.4,41.5-49.4,34.8l0.2-0.1l-0.1,0.1C59,116.1,98.4,119.7,101.5,120.4l0.1-0.1
		C101.7,120.3,101.6,120.3,101.5,120.4c0.1,0,0.1-0.1,0.1-0.1L101.5,120.4z" class="color color-2" data-color="#54775E"></path></g>
	<g><path fill="#adc660" d="M61,157.1c-2.9,0-5.9-0.3-9-0.8c-0.5-0.1-0.8-0.4-0.9-0.9c-0.1-0.3,0-0.6,0.1-0.8
		c5.8-32.2,33.2-35.7,44.7-35.7c2.6,0,4.6,0.2,5.5,0.3c0.2-0.1,0.5,0,0.7,0c0.4,0.2,0.7,0.5,0.7,0.9c0,0.2,0,0.4-0.1,0.6
		c0,0.1-0.1,0.2-0.1,0.3C101.3,126.1,92.2,157.1,61,157.1z M53.6,154.2c2.5,0.4,5,0.6,7.4,0.6c28.1,0,37.2-26.6,39.1-33.4
		c-1-0.1-2.4-0.2-4.2-0.2C85,121.2,59.4,124.4,53.6,154.2z" class="color color-2" data-color="#54775E"></path></g>
</g>
<g id="">
	<g><path fill="#ffffff" d="M60.6,22.1c0.1-2-0.5-4.6-2.5-4.6c-2,0-2.7,2.6-2.6,4.6c0.2,3.5,1,7.1,2.4,10.4l0.9,1.2
		C59.8,29.8,60.4,26,60.6,22.1z" class="color color-1" data-color="#8FCCB8"></path></g>
	<g><path fill="#ffffff" d="M62.4,22c0-2-0.5-4.9-2.7-6c-2-1-4.2,0.2-5.2,2.1c-1.4,2.7-0.6,6.3,0,9.1c0.6,2.8,1.3,5.4,3.1,7.6
		c0.8,1,2.6,0.4,2.9-0.8C61.5,30.1,62.1,26.1,62.4,22c0.1-2.2-3.4-2.2-3.5,0.1c-0.2,3.7-0.8,7.4-1.6,11.1c1-0.3,2-0.5,2.9-0.8
		c-1.3-1.7-1.8-4-2.2-6c-0.3-1.4-1-3.6-0.6-5c-0.2-1.1,0.3-1.5,1.4-1.1c0.1,0.6,0.2,0.8,0.2,1.8C58.8,24,62.4,24,62.4,22z" class="color color-1" data-color="#8FCCB8"></path></g>
</g>
<g id="">
	<g><path fill="#ffffff" d="M44.9,31.4c-1.3-0.8-2.7-2.2-2-3.5c0.8-1.3,2.8-0.6,4.1,0.3c2.2,1.6,4.1,3.6,5.7,5.8l0.4,1.1
		C50.2,34.1,47.5,32.9,44.9,31.4z" class="color color-1" data-color="#8FCCB8"></path></g>
	<g><path fill="#ffffff" d="M45.6,30.3c-0.5-0.3-1.2-0.6-1-1.3c0.2-0.8,0.8-0.2,1.3,0.1c1,0.6,1.9,1.5,2.8,2.3c1.2,1.2,2.6,2.5,3.1,4.1
		c0.6-0.6,1.1-1.1,1.7-1.7C50.7,32.9,48.1,31.7,45.6,30.3c-1.5-0.9-2.9,1.5-1.4,2.3c2.7,1.5,5.5,2.8,8.5,3.8c1,0.3,2-0.7,1.7-1.7
		c-0.6-1.7-1.6-3-2.9-4.3c-1.6-1.7-3.6-3.7-5.8-4.4c-1.7-0.5-3.5,0-4.1,1.8c-0.7,2.1,1.1,3.8,2.7,4.8C45.7,33.5,47,31.2,45.6,30.3z" class="color color-1" data-color="#8FCCB8"></path></g>
</g>
<g id="">
	<g><path fill="#ffffff" d="M84.8,103.7c1.9-1,4.8-1.5,5.8,0.4c0.9,2-1.4,3.9-3.5,4.7c-3.7,1.4-7.6,2.1-11.5,2.3l-1.6-0.4
		C77.4,107.9,81,105.6,84.8,103.7z" class="color color-1" data-color="#8FCCB8"></path></g>
	<g><path fill="#ffffff" d="M85.8,105.4c1.3-0.6,4.3-0.7,1.8,0.9c-1.4,1-3.4,1.4-5,1.8c-2.6,0.6-5.5,1.3-8.1,0.6
		c0.3,1.1,0.6,2.2,0.9,3.2C78.6,109.4,82.1,107.2,85.8,105.4c2.2-1.1,0.3-4.5-2-3.3c-4,2.1-7.7,4.5-11.2,7.2
		c-1.2,0.9-0.4,2.9,0.9,3.2c2.8,0.7,5.6,0.3,8.5-0.3c3.2-0.6,7.3-1.5,9.5-4.1c1.5-1.8,1.8-4.4-0.2-6.1c-2.1-1.9-5.2-1-7.5,0.1
		C81.6,103,83.5,106.4,85.8,105.4z" class="color color-1" data-color="#8FCCB8"></path></g>
</g>
<g id="">
	<g><path fill="#ffffff" d="M39,98.1c-0.7-1.1-8-10.3-19.1-11.6c-11.1-1.3,4.2-26.7,19,11" class="color color-1" data-color="#8FCCB8"></path></g>
	<g><path fill="#ffffff" d="M40.1,97.4c-2.8-4.3-7.6-7.8-12.2-9.9c-1.7-0.8-3.5-1.4-5.4-1.8c-1.1-0.3-2.7-0.2-3.7-0.8
		c-1.1-0.6-1.5-1.6-1.4-2.8c0.4-3.2,3.9-4.5,6.6-3.5c7.2,2.6,11.2,12.9,13.7,19.3c0.6,1.5,3,0.8,2.4-0.7c-2.9-7.2-7-17.7-15-20.8
		c-3.5-1.4-7.5-0.4-9.4,3c-1.5,2.8-1,6.4,2.1,7.9c1.6,0.7,3.4,0.7,5.1,1.1c2.6,0.7,5,1.8,7.2,3.2c2.8,1.8,5.9,4.3,7.8,7.1
		C38.8,100.1,41,98.8,40.1,97.4L40.1,97.4z" class="color color-1" data-color="#8FCCB8"></path></g>
</g>
<g id="">
	<g><path fill="#ffffff" d="M74.4,64.6c1-0.3,9.7-1.8,16.7,3s11.1-17.3-16.3-3.3" class="color color-1" data-color="#8FCCB8"></path></g>
	<g><path fill="#ffffff" d="M74.7,65.5C78,64.6,82,65,85.2,65.9c2.6,0.7,5,3.2,7.7,3.4c2.4,0.2,4.1-2,4.4-4.3c0.3-2.9-1.7-5.2-4.4-6
		c-6.1-1.8-13.2,1.8-18.4,4.5c-1.1,0.6-0.1,2.2,1,1.7c4.6-2.3,11.3-5.8,16.8-4.3c2.2,0.6,3.9,2.5,3,4.9c-1.3,3.4-4.4,0.4-6.3-0.5
		c-4.3-2-10-2.8-14.7-1.5C73,64,73.5,65.8,74.7,65.5L74.7,65.5z" class="color color-1" data-color="#8FCCB8"></path></g>
</g>
</svg>