<svg version="1.1" xmlns="http://www.w3.org/2000/svg" xmlns:xlink="http://www.w3.org/1999/xlink" x="0px" y="0px" viewBox="0 0 162.5 149.3" enable-background="new 0 0 162.5 149.3" xml:space="preserve" style="position: absolute;">
<g id="">
	<g><path fill="#a1be49" d="M98.1,108.6c-12.5-12.5-14.6-37-5.8-52.2c-10.5,5.3-22.2,4.1-30.5-4.3s-9.5-19.4-7.4-31.5
		c-6.8,13-15.8,12.5-26,8.9s-17.5-7.8-26.6-17L1,13.2c9.2,9.2,13.3,16.4,17,26.6s4.5,19.6-8.5,26.4c12-2.1,22.9-1,31.3,7.3
		s9.4,19.8,4.2,30.4c15.2-8.8,39.7-6.7,52.2,5.8" class="color color-1" data-color="#95BC40"></path></g>
	<g><path fill="#a1be49" d="M97.1,110.7c-0.3,0-0.5-0.1-0.7-0.3c-11.9-11.9-35.7-14.5-51-5.6c-0.4,0.2-0.9,0.2-1.2-0.1
		c-0.3-0.3-0.4-0.8-0.2-1.2c5.3-10.6,3.8-21.5-4-29.2c-7.3-7.1-16.9-9.4-30.4-7c-0.5,0.1-1-0.2-1.1-0.7c-0.2-0.5,0-1,0.5-1.2
		c11.9-6.2,11.8-14.6,8.1-25.2c-3.4-9.4-7.2-16.7-16.8-26.3C0.1,13.7,0,13.5,0,13.2c0-0.3,0.1-0.5,0.3-0.7L1,11.8
		c0.4-0.4,1-0.4,1.4,0c9.6,9.6,16.9,13.4,26.3,16.8c10.3,3.7,18.5,3.7,24.8-8.4c0.2-0.4,0.7-0.6,1.2-0.5c0.5,0.2,0.7,0.6,0.7,1.1
		c-2.3,13.3,0,23.3,7.2,30.6c7.6,7.7,18.8,9.3,29.3,4.1c0.4-0.2,0.9-0.1,1.2,0.2c0.3,0.3,0.4,0.8,0.1,1.2c-8.9,15.3-6.2,39.1,5.7,51
		c0.4,0.4,0.4,1,0,1.4c-0.2,0.2-0.4,0.3-0.6,0.3c0,0.3-0.1,0.5-0.3,0.7C97.7,110.6,97.4,110.7,97.1,110.7z M66.6,97.5
		c10.2,0,20.5,3,27.9,8.6c-9.4-12.4-11.4-33-4.5-47.6c-10.5,4.1-21.4,2.1-28.9-5.7c-6.8-6.9-9.5-15.9-8.4-27.6
		c-7.1,9.7-16,8.4-24.7,5.2c-7.1-2.5-13-5.3-19.6-10.6c5.2,6.6,8,12.5,10.6,19.6c3.2,8.9,4.6,18-4.9,25.1
		c11.8-1.2,20.5,1.4,27.4,8.2c7.8,7.7,9.8,18.3,5.6,28.9C52.9,98.9,59.7,97.5,66.6,97.5z" class="color color-1" data-color="#95BC40"></path></g>
</g>
<g><path opacity="0.46" fill="#3c4b1a" d="M98,110c-0.1,0-0.3,0-0.4-0.1C42.1,55,1.2,13.4,0.8,13c-0.2-0.2-0.2-0.5,0-0.7
	c0.2-0.2,0.5-0.2,0.7,0c0.4,0.4,41.3,42,96.9,96.9c0.2,0.2,0.2,0.5,0,0.7C98.2,110,98.1,110,98,110z" class="color color-2" data-color="#5F7523"></path></g>
<g id="">
	<g><path fill="#a1be49" d="M110.9,109.6c4.9-14,22.7-24.7,37.4-23.6c-7.9-6-11.3-15.3-8-24.6s11.2-14.4,21.1-17.2
		c-12.4-0.4-15.3-7.4-16.3-16.5c-1-9.1-0.5-16.1,3.1-26.4L147.6,1c-3.6,10.3-7.6,16.2-13.9,22.7c-6.4,6.5-13.2,10.6-23.1,3.2
		c6,8.3,9.2,17,6,26.4S104.9,67.7,95,67.6c12.3,8.3,19.7,27.7,14.8,41.7" class="color color-1" data-color="#95BC40"></path></g>
	<g><path fill="#a1be49" d="M110.9,110.6c-0.1,0-0.2,0-0.3-0.1c-0.2-0.1-0.3-0.2-0.5-0.3c-0.2,0.1-0.4,0.1-0.7,0
		c-0.5-0.2-0.8-0.8-0.6-1.3c4.6-13.3-2.1-32.2-14.4-40.5c-0.4-0.2-0.5-0.7-0.4-1.1c0.1-0.4,0.6-0.7,1-0.7c10,0.1,17.6-5,20.5-13.6
		c2.7-8.1,0.9-16.2-5.9-25.5c-0.3-0.4-0.2-1,0.1-1.3c0.4-0.3,0.9-0.4,1.3-0.1c9,6.7,15.2,3.6,21.8-3.1c5.9-6,10-11.5,13.7-22.3
		c0.1-0.3,0.3-0.5,0.5-0.6c0.2-0.1,0.5-0.1,0.8,0l0.8,0.3c0.5,0.2,0.8,0.8,0.6,1.3c-3.7,10.8-3.9,17.7-3,26c1,9.1,4,15.2,15.3,15.6
		c0.5,0,0.9,0.4,1,0.9c0.1,0.5-0.2,1-0.7,1.1c-10.9,3.1-17.6,8.5-20.4,16.6c-3.1,8.7-0.2,17.4,7.6,23.5c0.3,0.3,0.5,0.7,0.3,1.1
		c-0.2,0.4-0.6,0.7-1,0.6c-14.8-1.1-31.8,9.6-36.4,22.9C111.7,110.3,111.4,110.6,110.9,110.6z M97.9,68.5
		c10.2,8.4,16.1,23.9,14,36.5c6.2-11.2,20.4-19.8,33.7-20.1c-6.8-6.4-9.1-15.4-6.1-23.9c2.7-7.5,8.4-12.9,17.4-16.4
		c-9.6-2-11.8-9.2-12.6-16.8c-0.6-5.9-0.7-11.2,0.5-17.6c-2.9,5.8-6.3,9.8-10.4,14.1c-5.5,5.6-11.8,10.1-20.5,5.8
		c5,8.3,6.1,15.8,3.6,23.4C114.5,62.2,107.3,67.7,97.9,68.5z" class="color color-1" data-color="#95BC40"></path></g>
</g>
<g><path opacity="0.46" fill="#3c4b1a" d="M110.2,110.2c0,0-0.1,0-0.1,0c-0.2-0.1-0.3-0.3-0.3-0.5C131,47.4,147.5,1.2,147.6,0.7
	c0.1-0.2,0.3-0.3,0.5-0.3c0.2,0.1,0.3,0.3,0.3,0.5c-0.2,0.5-16.6,46.7-37.8,108.9C110.6,110.1,110.4,110.2,110.2,110.2z" class="color color-2" data-color="#5F7523"></path></g>
<g><circle fill="#fb514b" cx="95.2" cy="122.5" r="8.8" class="color color-3" data-color="#FF3939"></circle></g>
<g><circle fill="#fb514b" cx="117.1" cy="119.9" r="8.8" class="color color-3" data-color="#FF3939"></circle></g>
<g><circle fill="#fb514b" cx="108.5" cy="140.6" r="8.8" class="color color-3" data-color="#FF3939"></circle></g>
</svg>