<svg version="1.1" xmlns="http://www.w3.org/2000/svg" xmlns:xlink="http://www.w3.org/1999/xlink" x="0px" y="0px" viewBox="0 0 23.8 18.4" enable-background="new 0 0 23.8 18.4" xml:space="preserve" style="position: absolute;">
<g><path fill="#ffffff" d="M6.4,4.8C7,7,6.2,9.8,3,9.1C-0.2,8.5-0.3,3.3,3,2.3C4.7,1.8,5.9,3.2,6.4,4.8z" class="color color-1" data-color="#FF3939"></path></g>
<g><path fill="#ffffff" d="M17,11.8c1.2,2.1,0.7,5.4-3.2,5.9c-4,0.5-5.1-5-1.4-7.3C14.3,9.3,16.1,10.3,17,11.8z" class="color color-1" data-color="#FF3939"></path></g>
<g><path fill="#ffffff" d="M15.4,1.5c0.4,1.3-0.3,3-2.5,2.7c-2.2-0.3-2.1-3.4,0.2-4.1C14.3-0.3,15.2,0.5,15.4,1.5z" class="color color-1" data-color="#FF3939"></path></g>
<g><path fill="#ffffff" d="M23.7,5.8c0.4,1.3-0.3,3-2.5,2.7c-2.2-0.3-2.1-3.4,0.2-4.1C22.6,4,23.4,4.8,23.7,5.8z" class="color color-1" data-color="#FF3939"></path></g>
<g><path fill="#ffffff" d="M4.1,15.6c0.4,1.3-0.3,3-2.5,2.7c-2.2-0.3-2.1-3.4,0.2-4.1C3,13.8,3.9,14.6,4.1,15.6z" class="color color-1" data-color="#FF3939"></path></g>
</svg>